<?xml version="1.0" encoding="UTF-8" standalone="no"?>
<!-- Created with Inkscape (http://www.inkscape.org/) -->

<svg
   version="1.1"
   id="svg43642"
   width="800"
   height="800"
   viewBox="0 0 800 800"
   sodipodi:docname="skull-blood-stain-vector.svg"
   inkscape:version="1.2 (dc2aedaf03, 2022-05-15)"
   xmlns:inkscape="http://www.inkscape.org/namespaces/inkscape"
   xmlns:sodipodi="http://sodipodi.sourceforge.net/DTD/sodipodi-0.dtd"
   xmlns="http://www.w3.org/2000/svg"
   xmlns:svg="http://www.w3.org/2000/svg">
  <defs
     id="defs43646">
    <clipPath
       clipPathUnits="userSpaceOnUse"
       id="clipPath43658">
      <path
         d="M 0,600 H 600 V 0 H 0 Z"
         id="path43656" />
    </clipPath>
  </defs>
  <sodipodi:namedview
     id="namedview43644"
     pagecolor="#ffffff"
     bordercolor="#000000"
     borderopacity="0.25"
     inkscape:showpageshadow="2"
     inkscape:pageopacity="0.0"
     inkscape:pagecheckerboard="0"
     inkscape:deskcolor="#d1d1d1"
     showgrid="false"
     inkscape:zoom="1.04625"
     inkscape:cx="400"
     inkscape:cy="400.4779"
     inkscape:window-width="1920"
     inkscape:window-height="1017"
     inkscape:window-x="-8"
     inkscape:window-y="-8"
     inkscape:window-maximized="1"
     inkscape:current-layer="g43650">
    <inkscape:page
       x="0"
       y="0"
       id="page43648"
       width="800"
       height="800" />
  </sodipodi:namedview>
  <g
     id="g43650"
     inkscape:groupmode="layer"
     inkscape:label="Page 1"
     transform="matrix(1.3333333,0,0,-1.3333333,0,800)">
    <g
       id="g43652">
      <g
         id="g43654"
         clip-path="url(#clipPath43658)">
        <g
           id="g43660"
           transform="translate(134.1401,341.916)">
          <path
             d="m 0,0 c -1.396,0.272 -2.747,0.668 -4.01,1.239 -0.731,0.331 -1.437,0.815 -2.122,1.394 -4.173,3.523 -7.49,11.031 -9.845,15.315 -2.408,4.384 -2.213,9.71 -1.459,14.656 0.002,0.012 0.003,0.025 0.005,0.039 1.546,10.086 5.149,19.851 10.526,28.524 0.62,1 4.711,0.699 6.051,0.341 12.449,-3.317 19.229,-14.014 19.135,-20.836 1.24,1.92 1.429,4.141 1,6.371 -0.497,2.584 -1.827,5.182 -3.362,7.34 -5.137,7.224 -12.248,12.794 -18,19.539 -1.491,1.75 -2.895,3.639 -4.133,5.624 -3.536,5.672 -5.686,12.157 -4.422,18.6 0.086,0.434 0.13,0.881 0.153,1.337 0.02,0.388 0.024,0.781 0.011,1.179 -0.102,3.261 -1.089,6.834 0.137,9.603 0.091,0.206 0.19,0.408 0.308,0.606 5.128,8.611 15.654,16.027 25.049,19.518 8.14,3.023 17.894,1.134 24.317,-4.706 6.423,-5.843 12.335,-16.219 10.096,-24.608 -1.22,-4.572 -0.156,-12.892 0.955,-17.493 1.943,-8.045 11.277,-12.436 25.512,-12.917 0.196,-1.975 0.559,-4.451 0.963,-7.187 0.287,-1.95 0.594,-4.029 0.878,-6.163 -0.176,0.025 -0.357,0.054 -0.546,0.091 -0.638,0.151 -1.311,0.326 -2.034,0.573 -1.432,0.472 -2.956,1.066 -4.514,1.649 -1.561,0.587 -3.165,1.169 -4.799,1.696 -0.814,0.269 -1.645,0.512 -2.475,0.753 l -1.254,0.338 c -0.345,0.095 -0.594,0.171 -0.969,0.306 -2.852,1.042 -5.867,2.423 -8.74,3.817 -2.86,1.416 -5.787,2.934 -8.2,4.623 -0.292,0.209 -0.563,0.419 -0.802,0.618 -0.211,0.179 -0.443,0.423 -0.443,0.423 0,-0.018 -0.047,0.056 -0.089,0.127 l -0.125,0.198 -0.234,0.417 c -0.146,0.289 -0.287,0.586 -0.411,0.899 -0.503,1.25 -0.812,2.685 -0.996,4.181 -0.363,3.007 -0.264,6.231 -0.122,9.482 0.144,3.262 0.375,6.58 0.335,9.984 -0.074,3.383 -0.285,6.958 -1.878,10.4 -0.405,0.848 -0.907,1.673 -1.517,2.425 -0.594,0.751 -1.379,1.434 -2.035,1.935 -1.364,1.082 -2.84,2.061 -4.447,2.829 -3.188,1.553 -7.012,2.142 -10.495,1.276 -3.501,-0.799 -6.519,-2.723 -9.069,-4.953 -1.281,-1.122 -2.452,-2.347 -3.546,-3.627 -0.549,-0.644 -1.064,-1.292 -1.58,-1.976 -0.535,-0.731 -0.952,-1.475 -1.342,-2.23 C 3.902,100.544 2.805,97.394 1.996,94.149 1.604,92.525 1.293,90.875 1.204,89.176 1.166,88.328 1.175,87.464 1.354,86.591 1.542,85.691 1.981,84.908 2.451,84.208 3.413,82.8 4.578,81.602 5.786,80.465 6.997,79.332 8.267,78.274 9.561,77.251 12.146,75.2 14.848,73.317 17.5,71.37 c -2.567,2.061 -5.187,4.057 -7.67,6.208 -1.243,1.071 -2.457,2.175 -3.601,3.341 -1.139,1.166 -2.227,2.395 -3.066,3.748 -0.416,0.679 -0.757,1.381 -0.878,2.105 -0.125,0.747 -0.108,1.543 -0.041,2.333 0.144,1.587 0.503,3.174 0.944,4.731 0.898,3.107 2.104,6.168 3.645,8.974 0.391,0.691 0.813,1.369 1.273,1.948 0.502,0.61 1.041,1.225 1.588,1.81 1.099,1.172 2.262,2.281 3.503,3.27 2.472,1.976 5.284,3.546 8.263,4.076 2.971,0.583 6.008,-0.036 8.663,-1.468 1.333,-0.714 2.58,-1.621 3.745,-2.637 0.624,-0.531 1.067,-0.96 1.475,-1.519 0.4,-0.546 0.735,-1.151 1.009,-1.802 1.092,-2.622 1.219,-5.807 1.124,-8.963 C 37.37,94.347 37,91.104 36.7,87.8 36.409,84.493 36.126,81.115 36.384,77.563 c 0.138,-1.775 0.421,-3.606 1.057,-5.449 0.159,-0.46 0.347,-0.918 0.552,-1.371 l 0.338,-0.678 0.186,-0.333 c 0.061,-0.107 0.115,-0.211 0.242,-0.393 0.463,-0.676 0.839,-1.006 1.228,-1.384 0.378,-0.346 0.749,-0.651 1.115,-0.935 2.911,-2.19 5.81,-3.791 8.781,-5.413 2.993,-1.584 5.913,-3.07 9.197,-4.414 0.392,-0.162 0.925,-0.344 1.367,-0.488 l 1.106,-0.383 c 0.735,-0.268 1.468,-0.537 2.199,-0.835 1.463,-0.584 2.916,-1.224 4.394,-1.899 1.483,-0.67 2.982,-1.381 4.636,-2.056 1.606,-0.63 3.357,-1.327 5.757,-1.474 C 79.284,40.737 78.603,32.235 72.75,31.453 71.734,31.317 60.508,37.953 43,33.869 30.832,31.031 33.525,13.998 23.669,6.319 17.479,1.498 7.901,-1.531 0,0 m 356.166,-58.923 c 3,-4.035 4.453,-8.955 4.507,-13.929 0.088,-8.083 -3.523,-16.315 -10.261,-21.139 -2.737,-1.96 -5.922,-3.403 -9.287,-3.767 -3.155,-0.341 -6.317,0.27 -9.446,0.755 -5.123,0.795 -10.301,1.253 -15.492,1.381 -2.928,0.071 -5.859,0.04 -8.785,-0.101 -3.746,-0.181 -7.631,-0.583 -10.852,-2.475 -0.675,-0.398 -1.308,-0.882 -1.884,-1.425 -0.731,-0.367 -1.405,-0.808 -1.991,-1.298 -1.134,-0.941 -1.996,-2.02 -2.701,-3.106 -1.398,-2.193 -2.226,-4.41 -3.002,-6.618 -0.199,-0.588 -0.437,-1.308 -0.431,-2.159 0.005,-0.839 0.302,-1.658 0.732,-2.261 0.871,-1.217 1.959,-1.8 2.93,-2.401 0.502,-0.304 0.974,-0.551 1.359,-0.863 0.402,-0.322 0.766,-0.713 1.059,-1.148 0.293,-0.436 0.519,-0.925 0.586,-1.448 0.062,-0.518 -0.104,-1.076 -0.506,-1.487 0.48,0.305 0.82,0.87 0.881,1.483 0.058,0.612 -0.075,1.227 -0.293,1.794 -0.223,0.569 -0.534,1.103 -0.92,1.591 -0.192,0.238 -0.42,0.482 -0.639,0.688 l -0.627,0.589 c -0.809,0.76 -1.6,1.557 -1.875,2.315 -0.27,0.774 -0.072,1.154 0.469,2.053 1.158,1.867 2.4,3.71 3.805,5.076 0.15,0.149 0.302,0.287 0.455,0.421 1.142,0.562 2.296,1.11 3.459,1.634 0.111,0.005 0.222,0.014 0.332,0.008 l -0.022,0.135 c 3.445,1.536 6.988,2.813 10.719,3.331 5.846,0.813 12.334,-0.558 16.164,-4.905 2.441,-2.77 3.521,-6.431 3.643,-10.127 0.033,-1.072 -0.002,-2.148 -0.122,-3.205 -1.287,-11.333 -11.283,-20.853 -22.607,-23.03 -2.746,-0.528 -5.568,-0.63 -8.365,-0.215 -5.555,0.824 -14.166,4.037 -19.092,6.645 -7.047,3.731 -10.93,7.628 -13.545,15.028 -1.178,3.335 -1.051,6.845 -0.344,10.298 0.668,3.255 1.85,6.458 2.959,9.415 2.178,5.8 5.18,11.848 5.637,18.115 0.064,0.882 0.043,1.779 -0.061,2.663 -0.21,1.808 -0.793,3.559 -1.892,4.996 -1.541,2.012 -3.885,3.203 -6.018,4.572 -1.763,1.132 -3.47,2.516 -4.388,4.445 -1.073,2.255 -2.729,4.066 -4.207,6.098 l 1.761,3.713 6.815,14.365 c 3.506,-2.491 6.873,-5.308 10.263,-8.252 4.311,-3.731 8.77,-7.604 13.756,-10.898 1.268,-0.799 2.528,-1.602 3.85,-2.318 0.646,-0.379 1.314,-0.724 1.992,-1.052 l 1.008,-0.502 0.508,-0.251 0.656,-0.278 c 1.598,-0.59 2.994,-0.919 4.457,-1.268 1.447,-0.332 2.889,-0.62 4.369,-0.862 0.748,-0.118 1.483,-0.228 2.336,-0.294 0.863,-0.053 1.709,-0.034 2.52,0.046 1.621,0.163 3.132,0.517 4.593,0.94 2.916,0.853 5.621,2.012 8.27,3.203 l 3.908,1.81 c 1.262,0.594 2.529,1.146 3.809,1.613 2.549,0.927 5.177,1.518 7.679,1.157 2.496,-0.34 4.813,-1.71 6.66,-3.675 0.944,-0.954 1.77,-2.036 2.463,-3.202 0.721,-1.152 1.282,-2.406 1.737,-3.696 0.908,-2.585 1.265,-5.375 1.068,-8.134 -0.111,-1.38 -0.381,-2.743 -0.768,-4.077 -0.451,-1.302 -0.898,-2.68 -1.792,-3.609 -0.87,-0.956 -2.266,-1.239 -3.635,-1.129 -1.379,0.096 -2.776,0.471 -4.174,0.771 -2.789,0.63 -5.566,1.325 -8.33,2.08 2.719,-0.901 5.459,-1.743 8.219,-2.524 1.381,-0.372 2.744,-0.825 4.22,-1.011 0.735,-0.089 1.5,-0.098 2.262,0.067 0.758,0.168 1.508,0.539 2.08,1.092 1.166,1.117 1.676,2.546 2.236,3.895 0.487,1.392 0.852,2.832 1.049,4.302 0.369,2.937 0.151,5.961 -0.689,8.831 -0.418,1.432 -0.961,2.84 -1.69,4.16 -0.701,1.333 -1.558,2.593 -2.566,3.732 -0.979,1.16 -2.131,2.209 -3.449,3.076 -1.322,0.859 -2.832,1.494 -4.406,1.818 -3.178,0.653 -6.354,0.089 -9.215,-0.753 -1.442,-0.429 -2.836,-0.939 -4.2,-1.482 l -3.966,-1.62 c -2.621,-1.042 -5.25,-2.016 -7.868,-2.65 -1.302,-0.316 -2.605,-0.55 -3.839,-0.613 -0.62,-0.033 -1.207,-0.015 -1.77,0.045 -0.572,0.076 -1.25,0.208 -1.91,0.348 -1.334,0.29 -2.686,0.634 -4.012,1.011 -1.305,0.379 -2.678,0.803 -3.744,1.267 l -0.324,0.159 -0.443,0.249 -0.889,0.502 c -0.598,0.325 -1.186,0.668 -1.756,1.044 -1.164,0.705 -2.279,1.502 -3.399,2.287 -8.261,6.026 -15.121,14.369 -24.048,21.149 l 4.332,9.133 c 9.691,-12.617 17.716,-22.681 32.791,-28.415 1.779,-0.677 9.039,-1.14 10.908,-0.72 1.654,0.372 3,1.508 4.381,2.481 10.945,7.715 28.015,5.107 35.885,-5.483 m -305.979,-58.556 -0.053,0.079 c -0.013,0.02 0.004,-0.002 0.004,-0.002 l 0.025,-0.031 0.391,-0.463 -0.011,0.009 -0.111,0.112 c -0.089,0.09 -0.172,0.191 -0.245,0.296 m -7.235,3.112 0.068,-0.025 c -0.045,0.015 -0.102,0.037 -0.068,0.025 m 68.52,56.724 c 2.217,-4.995 2.896,-11.387 2.66,-17.224 -0.121,-2.996 -0.482,-5.847 -1.001,-8.284 -1.218,-5.718 -19.142,-4.804 -22.399,-19.747 -0.559,-2.568 -0.698,-5.589 -0.232,-9.206 0.668,-5.195 4.789,-12.182 5.865,-21.336 0.027,-0.23 0.061,-0.454 0.084,-0.686 0.62,-6.25 -4.708,-12.783 -10.468,-17.4 -1.888,-1.515 -3.822,-2.823 -5.608,-3.847 -7.235,-4.147 -16.365,-3.82 -24.226,-1.036 -13.773,4.88 -25.916,19.456 -24.68,34.656 0.116,1.423 -0.023,3.236 0.6,4.539 0.846,1.768 2.437,1.18 3.959,1.609 1.412,0.396 2.772,0.739 4.247,0.806 2.889,0.132 5.823,-0.544 8.326,-2.004 2.353,-1.371 4.277,-3.329 6.49,-4.895 2.371,-1.678 5.132,-2.437 7.825,-3.45 1.25,-0.465 2.475,-0.927 3.66,-1.432 1.151,-0.516 2.368,-1.076 3.306,-1.707 0.468,-0.319 0.868,-0.67 1.158,-1.06 0.289,-0.382 0.472,-0.827 0.582,-1.409 0.111,-0.568 0.151,-1.231 0.207,-1.906 l 0.161,-2.009 0.646,-8.034 0.717,8.028 0.179,2.007 c 0.055,0.663 0.137,1.341 0.125,2.107 -0.004,0.749 -0.16,1.632 -0.551,2.407 -0.38,0.772 -0.914,1.412 -1.467,1.953 -2.237,2.035 -4.63,3.374 -6.981,4.752 -2.018,1.171 -3.839,2.091 -5.53,3.703 -1.856,1.77 -3.635,3.622 -5.604,5.27 -6.817,5.708 -15.864,6.288 -24.374,5.186 -3.805,-0.493 -7.76,-1.257 -11.405,-0.055 -6.176,2.037 -9.224,8.805 -11.566,14.873 -2.359,6.116 -4.638,13.036 -4.011,19.317 0.083,0.831 0.219,1.65 0.411,2.456 0.42,1.762 1.102,3.459 2.144,5.046 4.024,6.126 12.182,6.63 19.488,7.205 17.791,1.399 28.8,-9.683 36.961,-12.198 7.507,-2.314 28.126,20.648 35.279,21.659 4.701,0.664 8.262,-0.526 10.922,-2.853 -4.318,-3.213 -8.515,-6.564 -12.609,-9.925 -4.569,-3.733 -9.06,-7.421 -13.794,-10.734 -2.357,-1.674 -4.777,-3.249 -7.254,-4.741 -1.235,-0.751 -2.485,-1.48 -3.756,-2.176 l -0.947,-0.532 -0.237,-0.133 -0.154,-0.066 c -0.099,-0.046 -0.196,-0.097 -0.348,-0.143 -0.522,-0.202 -1.202,-0.362 -1.85,-0.517 -2.685,-0.568 -5.597,-0.894 -8.376,-0.983 -0.694,-0.024 -1.38,-0.01 -1.982,0.034 -0.566,0.041 -1.079,0.158 -1.639,0.36 -1.108,0.396 -2.242,1.13 -3.42,1.952 -4.854,3.532 -10.356,6.368 -16.084,8.218 -1.437,0.46 -2.889,0.868 -4.354,1.217 -1.449,0.357 -2.991,0.644 -4.513,0.781 -3.041,0.262 -6.252,0.104 -9.174,-1.256 -1.443,-0.681 -2.764,-1.716 -3.703,-3.034 -0.951,-1.309 -1.494,-2.873 -1.68,-4.421 -0.363,-3.122 0.455,-6.191 1.862,-8.853 2.834,-5.338 8.335,-9.097 14.22,-9.668 -5.849,0.867 -10.994,4.864 -13.424,10.068 -1.212,2.584 -1.804,5.518 -1.337,8.257 0.236,1.362 0.765,2.641 1.603,3.679 0.832,1.046 1.943,1.832 3.187,2.346 2.51,1.027 5.414,1.058 8.188,0.671 2.773,-0.401 5.546,-1.32 8.24,-2.309 5.39,-2.057 10.357,-4.932 14.857,-8.564 1.192,-0.914 2.489,-1.899 4.126,-2.598 0.807,-0.341 1.73,-0.618 2.631,-0.71 0.864,-0.092 1.653,-0.123 2.431,-0.123 3.109,0.012 6.086,0.249 9.184,0.801 0.788,0.164 1.554,0.31 2.421,0.604 0.201,0.057 0.441,0.155 0.68,0.257 l 0.353,0.151 0.253,0.123 1.01,0.493 c 1.353,0.643 2.69,1.322 4.017,2.025 2.656,1.398 5.27,2.893 7.815,4.485 5.116,3.158 9.956,6.687 14.72,10.139 4.293,3.125 8.571,6.153 12.938,9.024 M 386.558,51.439 c -0.068,-10.465 -5.299,-21.019 -14.264,-26.55 -12.916,-7.971 -31.677,-4.348 -40.697,7.857 -4.521,6.115 -9.107,15.104 -16.555,13.56 -2.115,-0.439 -3.927,-1.751 -5.669,-3.032 -8.715,-6.403 -17.43,-12.807 -26.145,-19.212 0.363,0.268 0.561,2.434 0.647,5.554 0.002,0.05 0.002,0.099 0.003,0.149 0.215,8.169 -0.314,22.682 -0.64,27.344 7.478,5.369 14.844,10.882 22.074,16.559 2.08,1.647 4.291,3.304 6.359,5.372 2.043,2.042 3.981,4.64 4.803,7.775 0.817,3.132 0.463,6.159 0.002,8.864 -0.49,2.712 -1.043,5.259 -1.441,7.848 -0.403,2.576 -0.674,5.141 -0.604,7.675 0.069,2.539 0.457,5.016 1.377,7.338 0.916,2.312 2.285,4.464 4.113,6.116 1.813,1.659 4.145,2.739 6.596,2.892 4.912,0.358 10.209,-2.816 11.748,-7.759 1.565,-4.904 -0.512,-10.908 -5.072,-13.76 4.711,2.592 7.316,8.596 5.939,14.006 -0.683,2.709 -2.441,5.105 -4.715,6.742 -2.275,1.652 -5.085,2.594 -7.966,2.573 -2.897,-0.015 -5.756,-1.153 -7.983,-2.972 -2.248,-1.814 -3.951,-4.196 -5.146,-6.776 -1.201,-2.593 -1.813,-5.442 -2.039,-8.226 -0.237,-2.802 -0.092,-5.584 0.175,-8.303 0.264,-2.708 0.692,-5.412 1.006,-7.979 0.303,-2.548 0.36,-4.99 -0.316,-7.026 -0.66,-2.031 -2.094,-3.832 -3.898,-5.445 -1.805,-1.619 -3.958,-3.068 -6.153,-4.613 -6.351,-4.43 -12.785,-8.74 -19.285,-12.933 0.063,1.295 0.221,2.448 0.475,3.506 1.371,5.68 5.574,8.545 13.246,15.129 3.441,2.956 7.058,6.176 8.261,10.55 0.461,1.679 0.524,3.367 0.366,5.063 -0.412,4.393 -2.352,8.836 -3.012,13.3 -0.377,2.555 -0.244,5.128 0.303,7.618 2.142,9.744 10.73,18.179 20.808,19.029 12.653,1.066 25.002,-10.044 25.274,-22.739 0.002,-0.075 -0.006,-0.15 -0.006,-0.224 0.066,-5.587 -1.828,-10.996 -3.553,-16.318 -1.269,-3.916 -2.377,-8.148 -2.998,-12.383 -1.34,-9.148 -0.398,-18.313 6.143,-24.339 0.923,1.842 1.013,3.876 0.734,5.978 -0.705,5.33 -3.787,11.11 -1.773,15.433 0.261,0.563 0.603,1.103 1.056,1.613 4.006,4.512 11.381,1.318 16.291,-2.186 7.446,-5.313 14.957,-11.162 19.094,-19.319 2.1,-4.141 3.068,-8.737 3.037,-13.349 M 203.005,2.681 c 0.108,6.801 2.391,18.469 10.069,19.77 7.01,1.188 11.699,3.488 18.717,2.35 3.527,-0.572 11.197,-1.694 14.771,-1.711 13.984,-0.062 6.697,-15.053 5.826,-18.562 -1.261,-5.071 -2.193,-2.065 -0.885,-7.127 0.489,-1.888 0.889,-3.955 0.096,-5.739 -0.787,-1.77 -2.578,-2.863 -4.344,-3.66 -8.49,-3.832 -18.236,-3.245 -27.519,-2.46 -3.381,0.286 -6.889,0.628 -9.813,2.35 -4.916,2.894 -7.007,9.084 -6.918,14.789 m 3.385,-78.672 c 0.94,-1.463 1.733,-3.02 2.363,-4.639 0.692,-1.773 1.2,-3.642 2.233,-5.241 0.76,-1.178 -0.217,-3.267 -0.924,-3.635 -1.912,-0.995 -3.434,-1.333 -5.563,-0.983 -1.035,0.171 -2.382,-0.56 -2.732,0.43 -0.129,0.372 0,0 0.014,0.393 0.049,1.368 -0.086,2.243 -0.192,3.606 -0.062,0.831 -0.066,2.121 0.01,2.95 0.219,2.363 0.154,4.99 0.906,6.8 1.026,2.47 2.508,2.465 3.885,0.319 m 6.209,2.403 c 0.324,0.344 0.639,0.582 0.947,0.73 0.559,0.268 1.092,0.23 1.594,-0.014 2.147,-1.042 3.746,-5.915 4.559,-7.496 0.775,-1.512 1.562,-3.307 0.824,-4.837 -0.609,-1.26 -2.037,-1.858 -3.346,-2.352 -0.908,-0.341 -1.89,-0.687 -2.826,-0.43 -0.912,0.251 -1.596,1.051 -1.941,1.932 -0.346,0.881 -0.405,1.846 -0.446,2.792 -0.099,2.365 -1.197,7.721 0.635,9.675 m 7.861,-24.338 c -0.199,-3.099 -0.47,-6.401 -2.316,-8.857 -0.594,-0.792 -1.678,-1.501 -2.474,-0.929 -0.446,0.32 -0.594,0.917 -0.743,1.455 -0.826,2.978 -2.588,5.573 -3.84,8.39 -0.117,0.266 -0.234,0.546 -0.22,0.837 0.019,0.487 0.4,0.894 0.838,1.083 1.869,0.804 4.031,1.399 6.086,1.258 0.888,-0.062 1.867,-0.304 2.355,-1.072 0.395,-0.622 0.361,-1.423 0.314,-2.165 m -10.308,1.391 c -0.982,-2.445 -1.965,-4.891 -2.947,-7.336 -0.331,-0.822 -0.67,-1.661 -1.248,-2.323 -0.577,-0.662 -1.446,-1.124 -2.295,-0.967 -0.348,0.064 -0.68,0.233 -0.918,0.501 -0.336,0.378 -0.453,0.902 -0.598,1.392 -0.397,1.346 -1.082,2.581 -1.604,3.881 -0.521,1.3 -0.882,2.737 -0.585,4.11 0.042,0.195 -0.139,1.505 -0.194,1.819 2.895,1.194 6.149,1.447 9.186,0.716 0.611,-0.148 1.336,-0.481 1.365,-1.126 0.012,-0.231 -0.076,-0.453 -0.162,-0.667 m -10.606,6.55 c -0.068,-0.765 -0.412,-1.542 -1.06,-1.958 -0.555,-0.356 -1.244,-0.407 -1.902,-0.447 -2.09,-0.129 -4.479,-0.148 -5.909,1.369 -1.201,1.273 -1.293,3.204 -1.189,4.944 0.103,1.788 1.105,13.75 5.81,9.204 0.483,-0.465 0.756,-1.097 1.006,-1.715 1.209,-2.964 2.2,-6.015 2.959,-9.123 0.182,-0.747 0.354,-1.51 0.285,-2.274 m -1.763,-10.204 c -0.953,-2.331 -1.951,-4.652 -3.199,-6.829 -0.114,-0.196 -0.233,-0.395 -0.411,-0.529 -0.259,-0.195 -0.599,-0.221 -0.92,-0.241 -0.548,-0.032 -1.115,-0.063 -1.632,0.125 -0.967,0.349 -1.557,1.384 -1.768,2.415 -0.207,1.032 -0.119,2.1 -0.182,3.151 -0.066,1.14 -0.326,2.241 -0.718,3.306 -0.229,0.627 -1.039,1.841 -0.768,2.55 0.525,1.378 4.953,1.011 6.246,1.121 1.225,0.104 2.649,0.133 3.459,-0.821 0.957,-1.128 0.455,-2.868 -0.107,-4.248 m -11.285,11.616 c -2.254,-1.576 -5.858,-3.378 -6.758,0 -0.901,3.379 -0.901,11.487 0,12.163 0.9,0.676 2.908,3.077 5.18,-2.252 1.701,-3.985 3.829,-8.334 1.578,-9.911 m 0.363,-11.962 c -0.127,-1.03 -0.526,-2.001 -0.92,-2.957 -0.291,-0.704 -0.582,-1.408 -0.871,-2.112 -0.268,-0.647 -0.578,-1.343 -1.184,-1.668 -0.802,-0.431 -1.836,-0.002 -2.408,0.721 -0.568,0.725 -0.785,1.668 -0.988,2.577 -0.406,1.839 -2.254,6.279 -1.156,7.948 0.996,1.516 4.425,0.678 5.849,0.397 0.359,-0.071 0.737,-0.165 1,-0.426 0.307,-0.306 0.393,-0.772 0.463,-1.207 0.174,-1.083 0.35,-2.184 0.215,-3.273 m -9.902,10.021 c -0.444,-0.457 -1.102,-0.616 -1.725,-0.753 -1.106,-0.243 -2.264,-0.48 -3.356,-0.187 -1.796,0.482 -2.958,2.326 -3.216,4.167 -0.258,1.842 0.205,3.699 0.666,5.501 0.162,0.635 0.324,1.27 0.486,1.905 0.189,0.739 0.389,1.502 0.863,2.1 2.615,3.303 5.891,-7.664 6.469,-9.469 0.35,-1.093 0.611,-2.439 -0.187,-3.264 m -0.789,-14.921 c -0.313,-0.789 -0.817,-1.638 -1.633,-1.764 -0.799,-0.122 -1.512,0.508 -2.032,1.144 -0.724,0.888 -1.324,1.874 -1.923,2.858 -0.787,1.297 -1.6,2.673 -1.649,4.202 -0.019,0.559 0.078,1.143 0.399,1.594 0.55,0.776 1.582,0.961 2.505,1.085 1.555,0.207 3.465,0.074 4.62,-1.261 0.525,-0.608 0.646,-1.477 0.675,-2.291 0.065,-1.899 -0.265,-3.81 -0.962,-5.567 m -7.887,6.833 c -0.137,-1.197 -0.781,-2.303 -0.791,-3.507 -0.006,-0.634 0.164,-1.255 0.218,-1.886 0.088,-1.043 -0.142,-2.083 -0.373,-3.103 -0.06,-0.266 -0.136,-0.56 -0.359,-0.71 -0.168,-0.112 -0.383,-0.116 -0.582,-0.116 -0.467,-10e-4 -0.969,0.01 -1.346,0.292 -0.56,0.42 -0.613,1.237 -0.777,1.931 -0.244,1.033 -0.824,1.944 -1.395,2.831 -0.929,1.446 -1.858,2.893 -2.788,4.339 -0.187,0.291 -0.382,0.607 -0.372,0.957 0.006,0.227 0.099,0.443 0.217,0.637 0.671,1.11 2.017,1.534 3.252,1.844 1.215,0.305 2.48,0.583 3.709,0.33 0.977,-0.204 1.484,-2.982 1.387,-3.839 m -10.803,-8.59 c -1.842,1.408 -4.113,6.976 -5.512,8.846 -0.208,0.28 -0.418,0.582 -0.448,0.932 -0.119,1.41 1.018,2.858 1.942,3.905 7.23,2.465 6.173,-9.301 4.018,-13.683 m -7.164,18.484 c -3.167,2.053 -2.54,4.086 -1.454,7.147 0.783,2.202 0.921,4.296 3.266,5.392 0.814,0.38 1.499,0.538 2.082,0.531 0.584,-0.007 1.064,-0.184 1.455,-0.494 2.046,-1.624 1.705,-6.803 1.798,-9.29 0.037,-1.003 0.047,-2.064 -0.448,-2.936 -0.621,-1.092 -1.948,-1.651 -3.202,-1.615 -1.255,0.037 -2.445,0.581 -3.497,1.265 m 12.465,13.215 c 5.461,0.52 4.42,-11.329 3.625,-15.138 -0.033,-0.158 -2.43,-0.507 -3.469,-0.375 -0.563,0.071 -1.496,0.16 -1.937,0.517 -0.731,0.593 -0.976,0.415 -1.052,1.352 -0.293,3.564 1.381,13.506 2.833,13.644 m -2.891,108.87 c -0.61,0.34 -1.22,0.664 -1.882,0.92 -0.323,0.142 -0.665,0.254 -1.002,0.386 l -1.116,0.395 c -1.508,0.547 -3.117,1.147 -4.668,2.141 -0.768,0.5 -1.526,1.096 -2.166,1.836 -0.313,0.346 -0.639,0.804 -0.86,1.135 l -0.646,0.996 c -0.882,1.335 -1.753,2.724 -2.53,4.185 -0.746,1.476 -1.477,2.994 -1.861,4.659 -0.404,1.614 -0.502,3.515 0.364,4.948 -0.235,-1.63 0.353,-3.081 1.043,-4.425 0.733,-1.336 1.603,-2.61 2.569,-3.829 0.944,-1.238 1.956,-2.435 2.961,-3.681 l 0.76,-0.945 c 0.25,-0.318 0.413,-0.494 0.653,-0.725 0.456,-0.426 0.976,-0.812 1.569,-1.151 1.179,-0.687 2.583,-1.222 4.064,-1.798 l 1.128,-0.449 c 0.398,-0.182 0.806,-0.352 1.202,-0.559 0.789,-0.416 1.56,-0.91 2.259,-1.486 1.413,-1.176 2.427,-2.619 3.245,-3.99 l 2.537,-4.126 c -3.064,1.382 -5.285,4.221 -7.623,5.563 m -0.377,-48.286 c -1.844,-0.63 -3.856,-0.38 -5.795,-0.177 -5.155,0.542 -10.347,0.705 -15.526,0.488 -4.47,-0.186 -8.997,-0.652 -13.385,0.223 -4.389,0.875 -8.74,3.38 -10.501,7.493 -1.148,2.683 -1.078,5.706 -0.989,8.622 0.071,2.297 -0.871,1 -0.801,3.297 0.113,3.68 -5.612,10.256 -3.668,13.381 2.28,3.666 13.57,6.49 17.871,6.877 4.3,0.387 8.596,-0.557 12.811,-1.494 8.021,-1.781 18.908,-0.963 21.728,-9.897 1.804,-5.714 3.622,-11.517 3.814,-17.507 0.144,-4.503 -1.295,-9.848 -5.559,-11.306 m -9.276,-8.53 c -0.757,-0.338 -1.562,-0.551 -2.368,-0.762 -0.798,-0.253 -1.63,-0.341 -2.453,-0.495 -0.824,-0.153 -1.665,-0.128 -2.498,-0.197 -0.833,-0.003 -1.668,0.026 -2.498,0.067 -3.316,0.309 -6.492,1.173 -9.543,2.23 -3.057,1.055 -6.028,2.263 -8.98,3.59 3.192,-0.535 6.318,-1.337 9.418,-2.097 3.102,-0.743 6.181,-1.482 9.269,-1.731 3.084,-0.289 6.166,0.038 9.164,0.876 3.001,0.846 5.886,2.197 8.784,3.64 -2.427,-2.128 -5.198,-3.935 -8.295,-5.121 m -47.862,56.99 c -0.157,-0.785 -0.405,-1.555 -0.817,-2.234 -0.816,-1.362 -1.962,-2.289 -2.975,-3.213 -1.034,-0.922 -1.939,-1.877 -2.286,-3.188 -0.191,-0.634 -0.276,-1.315 -0.144,-1.972 0.109,-0.662 0.51,-1.27 1.108,-1.643 -0.641,0.279 -1.172,0.863 -1.391,1.565 -0.245,0.695 -0.258,1.451 -0.147,2.177 0.112,0.73 0.371,1.437 0.764,2.086 0.392,0.643 0.856,1.191 1.322,1.73 0.926,1.072 1.894,2.055 2.411,3.174 0.267,0.549 0.386,1.15 0.45,1.738 0.041,0.596 -0.033,1.202 -0.164,1.803 -0.609,2.445 -2.23,4.692 -3.639,7.198 -1.434,2.577 -2.352,5.482 -2.729,8.423 -0.776,5.93 0.54,11.856 2.637,17.218 2.103,5.394 5.134,10.362 8.385,14.99 3.294,4.641 6.997,9.012 11.093,13.004 4.144,3.94 8.687,7.501 13.677,10.343 2.498,1.41 5.087,2.651 7.747,3.706 2.666,1.042 5.411,1.866 8.194,2.491 5.566,1.232 11.339,1.535 16.91,0.687 l 0.144,-0.022 0.03,-0.115 0.689,-2.729 -1.016,2.464 c -11.145,0.173 -21.876,-3.464 -31.028,-9.255 -4.589,-2.937 -8.83,-6.413 -12.66,-10.305 -3.88,-3.843 -7.35,-8.106 -10.534,-12.574 -3.239,-4.465 -6.04,-9.124 -8.164,-14.095 -2.136,-4.936 -3.398,-10.255 -3.049,-15.488 0.179,-2.621 0.881,-5.152 1.961,-7.571 1.108,-2.45 2.732,-4.931 3.241,-8.024 0.034,-0.283 0.054,-0.572 0.064,-0.861 0.012,-0.309 0.012,-0.618 -0.013,-0.926 -0.015,-0.194 -0.038,-0.389 -0.071,-0.582 m 69.492,-77.957 c 2.287,9.746 4.791,19.442 7.511,29.077 0.768,2.721 2.514,4.837 4.586,6.651 4.135,-12.225 16.288,-20.223 19.258,-32.825 0.41,-1.741 0.559,-3.731 -0.508,-5.168 -1.507,-2.037 -4.722,-1.893 -6.904,-0.603 -2.18,1.29 -3.732,3.401 -5.662,5.045 -1.93,1.641 -1.678,3.062 -3.99,2.028 -1.61,-0.721 -3.746,-2.466 -4.574,-4.023 -0.829,-1.555 -3.489,-3.318 -4.948,-4.306 -1.461,-0.99 -3.785,-0.951 -4.683,0.566 -0.619,1.047 -0.364,2.372 -0.086,3.558 m 18.386,76.232 c 0.735,1.567 1.754,2.992 2.944,4.228 2.383,2.462 5.131,4.231 7.359,6.206 2.211,1.961 4.092,4.293 5.59,6.93 1.516,2.634 2.609,5.544 3.399,8.742 0.728,-3.233 0.337,-6.719 -0.823,-9.922 -1.172,-3.206 -3.18,-6.159 -5.785,-8.453 -2.602,-2.274 -5.434,-3.795 -7.859,-5.611 -2.399,-1.806 -4.612,-3.946 -5.621,-7.097 -0.293,1.642 0.099,3.403 0.796,4.977 m 27.374,80.182 c 2.152,-0.322 4.361,-0.789 6.496,-1.738 0.541,-0.21 1.043,-0.537 1.562,-0.815 0.5,-0.316 0.981,-0.678 1.461,-1.033 0.93,-0.76 1.723,-1.611 2.451,-2.438 1.465,-1.673 2.694,-3.185 4.229,-4.194 1.572,-1.071 3.506,-1.872 5.506,-2.969 1,-0.538 2.021,-1.222 2.933,-1.983 0.912,-0.761 1.742,-1.59 2.506,-2.447 1.521,-1.72 2.789,-3.537 4.024,-5.281 2.419,-3.533 4.872,-7.098 7.087,-10.853 2.168,-3.775 4.201,-7.693 5.612,-11.879 1.457,-4.168 2.316,-8.555 2.41,-12.958 0.053,-4.392 -0.678,-8.832 -2.539,-12.731 1.012,4.186 1.158,8.45 0.58,12.587 -0.539,4.144 -1.754,8.162 -3.365,11.981 -1.666,3.813 -3.651,7.496 -5.932,11.033 -2.236,3.564 -4.664,7.045 -7.135,10.538 -2.414,3.552 -4.707,6.833 -8.072,8.724 -1.703,1.049 -3.721,1.971 -5.646,3.392 -0.961,0.71 -1.875,1.585 -2.6,2.467 -0.738,0.885 -1.371,1.775 -2.002,2.601 -0.627,0.827 -1.252,1.592 -1.936,2.241 -0.361,0.303 -0.716,0.618 -1.099,0.902 -0.412,0.247 -0.774,0.573 -1.217,0.787 -1.697,0.98 -3.67,1.619 -5.703,2.151 -2.033,0.559 -4.154,0.986 -6.235,1.618 -2.08,0.617 -4.142,1.436 -5.919,2.659 3.998,-1.675 8.236,-1.763 12.543,-2.362 m 21.031,-132 c -2.817,-0.697 -5.653,-1.361 -8.547,-1.819 -2.891,-0.434 -5.867,-0.643 -8.797,-0.216 -0.729,0.113 -1.449,0.281 -2.172,0.419 -0.707,0.209 -1.414,0.411 -2.111,0.636 -0.678,0.293 -1.354,0.571 -2.018,0.873 -0.646,0.346 -1.283,0.703 -1.912,1.064 2.656,-1.188 5.447,-2.007 8.301,-2.232 2.85,-0.233 5.717,-0.007 8.558,0.443 2.846,0.428 5.676,1.063 8.538,1.584 1.429,0.262 2.863,0.515 4.3,0.738 1.444,0.195 2.891,0.373 4.342,0.481 -2.845,-0.617 -5.662,-1.282 -8.482,-1.971 m -3.83,-15.725 1.138,-0.355 c 7.219,-2.252 15.557,-4.472 23.151,-2.324 0.758,0.215 1.713,0.534 2.355,1.086 0.742,0.637 1.127,1.625 1.428,2.501 2.072,6.025 2.637,20.193 1.043,26.137 l -0.037,0.142 0.195,6.817 c 1.152,8.15 3.615,12.979 5.998,17.648 2.414,4.731 4.695,9.198 5.799,17.018 0.879,6.221 1.789,12.655 0.602,18.885 -1.006,5.269 -3.493,10.248 -5.899,15.061 -5.426,10.859 -11.035,22.087 -20.301,30.657 -13.607,12.584 -28.213,24.47 -42.812,26.232 -7.647,0.92 -14.469,0.402 -21.068,-0.099 -7.04,-0.536 -14.321,-1.09 -22.583,0.101 -24.006,3.463 -53.771,-16.897 -69.588,-37.813 -13.656,-18.059 -16.62,-36.479 -9.912,-61.594 1.538,-5.76 5.164,-10.666 8.67,-15.409 4.607,-6.233 9.369,-12.675 9.433,-21.101 l 3.621,-10.416 c 0.095,-2.51 0.058,-4.217 0.022,-5.868 -0.034,-1.621 -0.07,-3.299 0.022,-5.749 0.039,-1.003 0.078,-2.04 0.443,-2.92 0.339,-0.816 0.98,-1.609 2.08,-2.566 3.996,-3.485 9.484,-6.206 14.918,-7.192 4.254,-0.347 8.232,0.294 11.979,1.376 0.148,0.079 0.296,0.162 0.442,0.247 1.133,0.663 2.236,1.448 3.302,2.208 1.94,1.381 3.946,2.809 6.336,3.681 3.351,1.222 7.076,1.196 10.365,1.175 l 9.904,-0.066 -9.717,-1.916 c -2.752,-0.542 -5.677,-1.691 -8.762,-2.973 -0.145,-10e-4 -0.294,0.016 -0.436,0.003 -0.614,-0.059 -1.153,-0.224 -1.595,-0.409 -0.884,-0.38 -1.484,-0.813 -2.017,-1.214 -0.053,-0.042 -0.098,-0.081 -0.151,-0.122 -2.08,-0.845 -4.233,-1.66 -6.469,-2.341 0.197,-1.565 0.294,-3.154 0.261,-4.69 -0.025,-1.705 -0.191,-3.3 -0.271,-4.732 -0.04,-0.717 -0.054,-1.395 -0.027,-2.062 0.035,-0.678 0.1,-1.438 0.185,-2.182 0.162,-1.5 0.374,-3.034 0.587,-4.573 0.429,-3.077 0.87,-6.19 1.163,-9.32 0.257,-3.119 0.487,-6.326 -0.125,-9.398 -0.003,3.116 -0.833,6.1 -1.676,9.054 -0.881,2.953 -1.901,5.863 -2.927,8.806 -0.511,1.472 -1.025,2.951 -1.506,4.48 -0.243,0.77 -0.473,1.53 -0.682,2.382 -0.204,0.864 -0.349,1.732 -0.459,2.562 -0.215,1.662 -0.341,3.167 -0.587,4.553 -0.187,1.111 -0.463,2.164 -0.783,3.205 -1.975,-0.182 -4.026,-0.097 -6.087,0.232 -1.592,0.111 -3.225,0.354 -4.902,0.753 4.265,-9.457 3.092,-20.218 2.048,-29.788 -0.262,-2.412 -0.511,-4.691 -0.654,-6.822 -0.146,-2.178 -0.602,-4.348 -1.044,-6.447 -1.104,-5.248 -2.058,-9.779 1.702,-13.293 1.182,-1.103 2.313,-2.345 3.511,-3.66 3.118,-3.421 6.343,-6.959 10.448,-7.925 6.465,-1.521 11.249,-4.431 14.899,-8.103 -0.223,0.683 -0.448,1.365 -0.657,2.056 -0.97,3.267 -1.757,6.481 -3.012,9.564 -1.238,3.08 -2.87,6.023 -4.84,8.745 2.225,-2.518 4.161,-5.318 5.728,-8.336 1.586,-3.01 2.713,-6.252 3.973,-9.311 1.533,-3.7 3.26,-7.459 4.942,-11.269 1.709,-3.26 3.006,-6.697 4.098,-10.068 0.408,-0.448 3.375,-0.792 4.969,-0.978 0.915,-0.106 1.982,-0.102 2.861,-0.391 0.996,-0.327 1.627,-0.73 2.73,-0.43 0.957,0.26 1.809,0.807 2.735,1.161 2.857,1.09 5.634,0.03 8.5,-0.169 3.338,-0.23 6.664,-0.601 10.007,-0.793 6.577,-0.379 13.17,-0.472 19.756,-0.27 1.598,0.048 3.016,0.133 4.192,0.677 1.531,0.706 1.631,1.993 1.191,4.567 -0.303,0.665 -0.551,1.397 -0.609,2.194 -0.03,0.346 -0.004,0.681 0.043,1.009 -0.281,2.086 2.765,12.532 3.324,13.848 1.152,2.638 2.365,5.194 3.545,7.795 0.637,1.267 0.982,2.653 1.472,3.996 0.239,0.672 0.493,1.342 0.809,1.984 0.32,0.633 0.695,1.273 1.277,1.695 -0.562,-0.444 -0.906,-1.092 -1.199,-1.732 -0.287,-0.649 -0.513,-1.322 -0.724,-2.001 -0.426,-1.351 -0.733,-2.759 -1.309,-4.08 -1.027,-2.652 -2.111,-5.311 -3.096,-7.954 -0.47,-1.336 -0.8,-2.637 -0.83,-4.046 -0.039,-0.649 -0.129,-1.275 -0.218,-1.889 1.24,1.429 2.423,2.958 3.652,4.555 4.666,6.07 9.488,12.346 19.049,14.777 1.74,0.443 2.451,3.516 3.078,6.226 0.371,1.605 0.722,3.122 1.293,4.224 0.666,1.284 0.471,2.81 0.144,4.669 -0.777,4.446 -0.859,8.189 -0.937,11.809 -0.076,3.544 -0.156,7.209 -0.908,11.502 -0.848,4.838 -0.651,10.422 0.523,14.937 0.506,1.942 0.6,3.716 0.692,5.433 0.14,2.662 0.275,5.206 1.945,7.751 -3.487,-0.125 -6.961,0.646 -10.641,1.769 -0.24,-1.037 -0.445,-2.198 -0.625,-3.366 -0.242,-1.551 -0.457,-3.142 -0.672,-4.737 -0.428,-3.195 -0.851,-6.424 -1.357,-9.645 -0.502,-3.22 -1.098,-6.446 -1.916,-9.621 -0.844,-3.144 -1.84,-6.371 -3.748,-9.008 1.377,2.935 1.724,6.14 1.971,9.299 0.208,3.175 0.199,6.364 0.097,9.562 -0.1,3.197 -0.277,6.398 -0.449,9.63 -0.084,1.617 -0.17,3.24 -0.221,4.899 -0.051,1.661 -0.082,3.332 0.078,5.258 -5.297,1.805 -11.277,3.716 -18.582,4.594 l -7.642,0.919 7.623,1.064 c 7.822,1.094 15.5,-1.31 22.922,-3.634"
             style="fill:#110f0d;fill-opacity:1;fill-rule:nonzero;stroke:none"
             id="path43662" />
        </g>
        <g
           id="g43664"
           transform="translate(321.9834,302.1182)">
          <path
             d="M 0,0 C 1.83,-1.886 5.305,-1.754 6.988,0.265 8.67,2.284 8.174,5.726 5.988,7.187 4.746,7.962 1.746,7.979 0.314,6.521 -1.117,5.063 -1.279,0.959 0,0 m 181.307,-3.984 c 1.681,2.018 1.183,5.461 -1,6.922 -1.243,0.775 -4.243,0.792 -5.674,-0.666 -1.432,-1.458 -1.594,-5.562 -0.315,-6.521 1.83,-1.887 5.305,-1.755 6.989,0.265 M 99.768,-118.949 c -1.243,0.775 -4.243,0.793 -5.674,-0.665 -1.432,-1.458 -1.594,-5.563 -0.315,-6.522 1.83,-1.884 5.305,-1.754 6.989,0.265 1.681,2.019 1.185,5.462 -1,6.922 m -173.318,-2.672 c 1.681,2.018 1.183,5.461 -1.001,6.921 -1.242,0.775 -4.242,0.794 -5.674,-0.664 -1.43,-1.458 -1.593,-5.563 -0.315,-6.523 1.831,-1.886 5.307,-1.754 6.99,0.266 m 65.806,-18.545 c -4.141,-1.021 -7.061,-2.156 -5.625,-9.317 0.881,-7.239 12.557,-9.74 16.324,-3.496 3.768,6.241 -3.885,15.407 -10.699,12.813 M -141.035,52.897 c -4.14,-1.022 -7.061,-2.156 -5.624,-9.316 0.881,-7.238 12.555,-9.74 16.323,-3.498 3.769,6.243 -3.885,15.408 -10.699,12.814 m 24.868,164.033 c -5.779,6.21 -18.446,1.044 -18.235,-7.438 6.153,-5.674 21.684,-5.075 18.235,7.438 M 4.344,197.278 c 1.843,-0.145 3.814,0.013 5.322,1.081 1.508,1.069 2.314,3.28 1.34,4.849 -0.186,1.346 -4.34,1.852 -7.115,1.06 -0.93,-0.265 -1.858,-1.039 -2.403,-1.114 -1.717,0.114 -2.605,-2.372 -1.67,-3.814 0.936,-1.442 2.811,-1.926 4.526,-2.062 m 153.24,2.945 c 4.156,4.767 1.75,13.387 -4.461,15.152 -3.689,1.048 -7.65,-0.853 -9.846,-3.798 -3.707,-0.773 -5.519,-7.336 -2.658,-10.825 4.008,-4.883 12.809,-5.296 16.965,-0.529 M 139.516,5.042 c 7.32,-0.432 14.191,5.444 15.529,12.462 0.721,3.78 -0.199,8.165 -3.41,10.404 -3.209,2.239 -8.555,3.713 -10.92,2.712 -6.994,1.001 -11.623,-5.206 -13.065,-10.761 -1.795,-6.921 4.545,-14.384 11.866,-14.817 M 46.365,-103.653 c 2.93,18.861 15.899,48.594 33.621,48.016 1.891,4.991 3.985,10.026 4.883,14.823 -0.211,1.808 -0.793,3.559 -1.892,4.996 -1.539,2.011 -3.885,3.203 -6.018,4.572 -1.764,1.132 -3.471,2.517 -4.389,4.445 -1.072,2.255 -2.728,4.066 -4.207,6.098 l 1.762,3.713 c -0.42,0.578 -0.842,1.156 -1.262,1.733 l 6.508,13.718 c -0.443,0.299 -0.889,0.596 -1.338,0.883 l 1.57,2.334 c -0.199,-0.25 -0.418,-0.49 -0.671,-0.707 -0.94,-0.808 -2.159,-1.222 -3.114,-1.492 -2.55,-0.723 -5.156,-0.991 -7.759,-0.948 l -0.903,-0.903 c -2.654,-2.66 -2.789,-5.188 -2.959,-8.388 -0.092,-1.73 -0.195,-3.692 -0.752,-5.83 -0.697,-2.677 -1.025,-5.755 -0.974,-8.809 v -0.004 c 0.453,-2.593 0.664,-4.927 0.777,-7.16 0.506,-3.636 0.578,-6.825 0.647,-9.92 0.031,-1.45 0.064,-2.922 0.142,-4.448 0.082,-0.583 0.174,-1.174 0.279,-1.784 0.215,-1.227 0.414,-2.512 0.241,-3.727 0.072,-0.507 0.154,-1.022 0.246,-1.546 0.291,-1.667 0.691,-3.95 -0.34,-5.936 -0.455,-0.878 -0.778,-2.274 -1.119,-3.754 -0.756,-3.266 -1.614,-6.97 -4.535,-7.713 -8.889,-2.26 -13.496,-8.258 -17.956,-14.058 -1.802,-2.346 -3.505,-4.563 -5.478,-6.557 -0.033,-0.031 -0.051,-0.069 -0.08,-0.101 -0.043,-0.425 -0.102,-0.852 -0.195,-1.26 -0.102,-0.475 -0.231,-0.927 -0.36,-1.366 0.133,-0.946 0.178,-1.836 0.004,-2.618 0.049,-0.259 0.098,-0.521 0.151,-0.786 0.572,-2.957 1.222,-6.308 -2.116,-7.85 -1.515,-0.701 -3.217,-0.807 -4.97,-0.861 -12.219,-0.372 -24.561,0.252 -36.666,1.866 -0.454,0.066 -1.327,-0.534 -1.977,-0.964 -0.844,-0.558 -1.834,-1.212 -2.793,-1.212 -0.408,0 -0.809,0.117 -1.191,0.408 -0.487,0.37 -2.664,0.623 -4.256,0.808 -3.786,0.44 -6.134,0.789 -6.638,2.346 -0.9,2.776 -1.949,5.597 -3.259,8.316 -1.053,1.739 -2.184,3.467 -3.043,5.298 -3.723,5.393 -9.092,9.827 -17.385,11.779 -4.708,1.108 -8.3,5.049 -11.469,8.525 -1.17,1.283 -2.276,2.496 -3.398,3.546 -4.584,4.283 -3.42,9.816 -2.294,15.165 0.428,2.031 0.87,4.132 1.006,6.17 0.146,2.172 0.396,4.471 0.661,6.903 1.088,9.973 2.321,21.276 -2.832,30.65 l -0.305,0.558 c -3.155,1.387 -6.087,3.226 -8.499,5.329 -0.906,0.79 -2.02,1.878 -2.615,3.309 -0.502,1.211 -0.549,2.485 -0.592,3.61 -0.095,2.51 -0.058,4.217 -0.023,5.868 0.033,1.588 0.07,3.229 -0.016,5.598 l -3.627,10.3 v 0.171 c 0,7.85 -4.392,13.793 -9.042,20.083 -2.966,4.013 -5.994,8.146 -7.897,12.876 -12.55,-27.016 -33.278,-42.344 -54.043,-36.338 -13.259,3.835 -20.193,10.891 -29.459,15.678 -1.396,0.271 -2.746,0.667 -4.011,1.24 -0.731,0.331 -1.436,0.815 -2.122,1.393 -3.058,1.041 -6.456,1.8 -10.408,2.143 -11.209,0.969 -33.25,-12.273 -31.575,-37.028 1.355,-20.046 13.851,-46.623 37.825,-44.185 4.419,0.45 8.192,1.223 12.457,3.28 0.083,0.831 0.219,1.65 0.41,2.456 -0.126,3.729 0.562,7.323 2.644,10.492 4.024,6.126 12.183,6.63 19.489,7.205 0.985,0.077 1.945,0.11 2.887,0.115 0.153,0.148 0.298,0.286 0.453,0.436 13.413,13.004 38.807,9.714 52.264,-2.468 6.688,5.369 13.209,10.894 16.635,11.378 16.574,2.342 19.091,-18.198 17.184,-31.324 -0.122,-2.996 -0.481,-5.847 -1,-8.285 -1.22,-5.717 -19.144,-4.803 -22.4,-19.747 0.019,-1.182 0.095,-2.423 0.268,-3.759 0.443,-3.44 2.4,-7.667 3.987,-12.786 13.613,2.477 65.321,-34.683 21.222,-54.053 -50.014,-21.967 -33.637,-55.4 -0.641,-66.586 18.822,-6.382 38.603,0.013 43.242,10.164 13.138,28.743 -49.684,69.123 28.74,66.788 44.783,-1.333 -10.629,-36.452 15.324,-65.033 27.686,-30.488 83.797,-1.696 82.334,22.667 -3.01,50.102 -57.947,17.333 -51,62.046 m 105.34,283.196 c 5.514,-4.261 9.334,-10.77 9.484,-17.766 0.041,-1.91 -0.164,-3.798 -0.505,-5.671 0.066,-5.587 -1.829,-10.996 -3.553,-16.316 -1.27,-3.917 -2.377,-8.149 -2.998,-12.384 -0.238,-7.23 1.404,-14.067 6.642,-18.894 0.088,0.176 0.162,0.354 0.235,0.532 -0.705,5.33 -3.787,11.111 -1.774,15.434 -0.398,2.627 -0.213,5.066 1.557,7.059 4.006,4.511 11.381,1.319 16.291,-2.185 7.445,-5.313 14.957,-11.162 19.094,-19.32 2.929,-5.777 3.66,-12.437 2.537,-18.797 -0.069,-10.464 -5.299,-21.017 -14.264,-26.549 -12.916,-7.97 -31.678,-4.348 -40.697,7.857 -4.522,6.117 -9.108,15.104 -16.555,13.561 -2.115,-0.439 -3.928,-1.751 -5.67,-3.031 C 112.814,76.669 104.1,70.265 95.385,63.86 c 0.363,0.267 0.56,2.434 0.646,5.555 -0.049,-0.036 -0.097,-0.072 -0.146,-0.107 0.054,0.039 0.103,0.134 0.15,0.255 0.215,8.168 -0.314,22.682 -0.639,27.345 -1.25,-0.895 -2.494,-1.798 -3.748,-2.684 l -1.359,2.041 c 0.246,-1.579 0.375,-3.166 0.408,-4.761 C 91.807,85.116 90.914,78.688 90.035,72.47 88.883,64.319 86.42,59.492 84.037,54.823 81.629,50.104 79.355,45.646 78.246,37.86 l -0.113,-4.093 c 0.168,-1.313 0.281,-2.769 0.342,-4.312 C 79.592,22.411 78.93,10.104 76.947,4.339 76.713,3.657 76.428,2.971 76.045,2.332 l 2.012,2.992 C 78.201,5.223 78.338,5.117 78.48,5.015 l 6.377,13.444 c 6.748,-8.786 12.696,-16.328 20.77,-22.038 -25.428,31.793 -17.904,86.676 18.072,73.546 38.186,-13.935 63.053,-38.648 81.666,22.78 15.912,52.517 -31.433,91.722 -53.66,86.796 m -259.176,-295.118 c -7.235,-4.148 -16.364,-3.82 -24.224,-1.036 -15.515,5.496 -27.344,22.29 -24.227,38.25 -0.005,0.57 0.008,1.141 0.04,1.713 -24.978,-5.49 -43.576,-10.3 -20.502,-46.051 25.526,-39.551 60.587,-25.824 74.523,10.97 -1.89,-1.513 -3.824,-2.822 -5.61,-3.846 m 280.246,93.044 c 0.735,-3.436 0.733,-7.041 0.055,-10.524 0.088,-8.083 -3.523,-16.313 -10.262,-21.138 -2.736,-1.96 -5.922,-3.404 -9.287,-3.767 -3.154,-0.341 -6.316,0.269 -9.445,0.755 -5.123,0.795 -10.301,1.253 -15.492,1.381 3.472,-0.884 6.72,-2.632 8.922,-5.131 3.148,-3.572 4.054,-8.628 3.521,-13.331 -0.086,-0.757 -0.219,-1.504 -0.379,-2.242 0.033,-1.073 -0.002,-2.148 -0.121,-3.205 -1.287,-11.333 -11.283,-20.853 -22.607,-23.031 0.955,-2.424 1.912,-4.954 2.873,-7.602 5.816,-16.045 57.547,-20.969 73.812,8.066 19.578,34.948 6.414,79.317 -21.59,79.769 m -366.833,141.876 c -3.534,5.672 -5.686,12.155 -4.421,18.598 0.085,0.434 0.129,0.883 0.152,1.339 -0.006,0.392 -0.006,0.784 0.013,1.177 -0.103,3.263 -1.09,6.834 0.135,9.603 -0.199,2.19 -0.228,4.314 0.808,6.053 5.128,8.611 15.655,16.029 25.051,19.518 8.138,3.023 17.893,1.135 24.316,-4.707 6.423,-5.841 14.733,-16.703 12.494,-25.092 -0.079,-0.296 -0.147,-0.611 -0.205,-0.941 21.679,12.097 39.718,18.491 42.538,-9.623 0.075,-0.756 0.139,-1.508 0.204,-2.26 13.18,16.903 37.276,36.975 59.768,39.571 -12.046,3.122 -18.155,9.787 -17.767,19.252 0.5,12.154 30.8,19.087 30.337,43.801 -0.459,24.533 -36.542,57.033 -76.875,28.366 -17.861,-12.693 -19.819,-30.822 -13.527,-40.535 15.36,-23.712 57.786,-25.799 30.069,-49.164 -54.133,-45.63 -58.53,35.333 -81.166,49.5 -17.769,11.119 -73.916,-29.884 -56.959,-84.384 4.676,-15.028 15.176,-19.792 25.035,-20.072 M 43.865,264.801 c 45.358,18.866 85.602,-54.464 48.5,-68.308 -36.207,-13.51 -55.377,-22.335 -7.008,-52.888 11.723,-7.404 20.1,-11.263 26.332,-12.435 -0.818,-0.761 -1.664,-1.495 -2.5,-2.213 -9.777,-8.391 -13.923,-10.742 -13.746,-20.576 -0.254,-1.057 -0.412,-2.212 -0.474,-3.506 -1.938,-1.25 -3.883,-2.483 -5.832,-3.711 -1.248,3.93 -3.123,7.699 -4.985,11.427 -5.523,11.052 -11.23,22.354 -20.517,30.943 -11.399,10.541 -27.551,26.379 -43.479,28.3 -4.754,0.573 -9.115,0.655 -13.322,0.556 54.83,10.208 -28.316,65.229 37.031,92.411"
             style="fill:#ec1e27;fill-opacity:1;fill-rule:nonzero;stroke:none"
             id="path43666" />
        </g>
      </g>
    </g>
  </g>
</svg>
